<!-- AlohaDSH 横幅标记（深色背景版）—— 与 logo-light.svg 同一个造型，只有 fill 不同。
     除 fill 外任何一处（viewBox / path / 尺寸）都不要和 logo-light.svg 走样，
     改动以 media/icon.svg 为准，两个文件一起搬。理由与用法见 logo-light.svg 的注释。 -->
<svg xmlns="http://www.w3.org/2000/svg" width="214" height="125.6" viewBox="1.3 5.72 21.4 12.56">
  <path fill="#e6edf3" fill-rule="evenodd" d="M15.55 6.02L16.33 6.31L17.3 6.41L17.98 6.7L18.51 7.24L18.76 7.87L19.44 6.99L20.31 6.61L21.57 6.51L22.16 6.22L22.4 6.46L22.3 7.04L22.01 7.72L21.48 8.36L20.12 9.04L19.29 9.76L18.22 12.68L17.35 13.94L16.42 14.87L15.26 15.55L13.9 15.94L12.15 15.94L11.42 15.79L12.49 17.44L12.24 17.88L11.47 17.98L10.3 17.69L9.23 17.01L8.26 15.64L6.02 15.45L4.66 14.96L2.81 13.9L1.89 12.87L1.6 12L1.7 10.74L2.38 9.38L3.3 8.45L4.27 7.87L5.73 7.48L7.48 7.48L9.13 7.87L10.4 8.36L14.67 10.79L15.35 10.98L16.71 10.88L17.44 10.35L17.73 9.57L17.49 9.13L16.42 8.55L15.69 7.82L15.4 7.24L15.5 6.07ZM10.88 10.3L11.27 10.4L11.51 10.74L11.51 11.22L10.98 12.15L11.95 11.37L12.44 11.37L12.78 11.71L12.68 12.19L12.34 12.53L11.13 12.49L12 13.17L12 13.85L11.66 14.09L11.08 13.99L10.74 13.46L10.69 12.73L10.25 13.65L9.81 13.9L9.33 13.8L9.08 13.46L9.18 12.97L9.52 12.63L10.2 12.53L10.35 12.39L9.13 12.15L8.89 11.81L8.89 11.42L9.33 11.08L9.72 11.08L10.25 11.51L10.59 12.15L10.64 11.9L10.35 11.32L10.35 10.74L10.83 10.35ZM5.73 12.15L6.22 12.15L6.56 12.58L6.56 12.87L6.22 13.21L5.73 13.21L5.39 12.68L5.68 12.19Z"/>
</svg>
